<svg xmlns="http://www.w3.org/2000/svg" height="24" viewBox="0 -960 960 960" width="24" class="reverse">
    <path
        d="M480-80q75 0 140.5-28.5t114-77q48.5-48.5 77-114T840-440q0-75-28.5-140.5t-77-114q-48.5-48.5-114-77T480-800h-6l62-62-56-58-160 160 160 160 56-58-62-62h6q117 0 198.5 81.5T760-440q0 117-81.5 198.5T480-160q-117 0-198.5-81.5T200-440h-80q0 75 28.5 140.5t77 114q48.5 48.5 114 77T480-80Z" />
    <text x="450" y="-400" font-size="300" fill="#C24700" text-anchor="middle" dominant-baseline="middle">10</text>
</svg>