<svg width="55" height="55" viewBox="0 0 55 55" fill="none" xmlns="http://www.w3.org/2000/svg">
<g clip-path="url(#clip0_2931_2441)">
<path fill-rule="evenodd" clip-rule="evenodd" d="M27 30.6525L33.6287 37.2812C33.9805 37.633 34.4576 37.8306 34.955 37.8306C35.4524 37.8306 35.9295 37.633 36.2812 37.2812C36.633 36.9295 36.8306 36.4524 36.8306 35.955C36.8306 35.4575 36.633 34.9805 36.2812 34.6287L29.65 28L36.28 21.3712C36.4541 21.1971 36.5921 20.9903 36.6863 20.7628C36.7805 20.5353 36.829 20.2914 36.8289 20.0452C36.8288 19.7989 36.7803 19.5551 36.686 19.3276C36.5917 19.1001 36.4535 18.8934 36.2794 18.7194C36.1052 18.5453 35.8985 18.4072 35.6709 18.313C35.4434 18.2188 35.1996 18.1704 34.9533 18.1705C34.7071 18.1705 34.4632 18.2191 34.2357 18.3134C34.0083 18.4076 33.8016 18.5458 33.6275 18.72L27 25.3487L20.3712 18.72C20.1984 18.5408 19.9915 18.3979 19.7628 18.2995C19.5341 18.2011 19.2881 18.1493 19.0391 18.147C18.7902 18.1447 18.5433 18.1921 18.3128 18.2862C18.0823 18.3804 17.8729 18.5195 17.6968 18.6955C17.5206 18.8715 17.3813 19.0807 17.2869 19.3111C17.1925 19.5415 17.145 19.7884 17.147 20.0373C17.1491 20.2863 17.2007 20.5324 17.2988 20.7612C17.397 20.99 17.5397 21.1969 17.7187 21.37L24.35 28L17.72 34.63C17.541 34.803 17.3983 35.01 17.3001 35.2388C17.2019 35.4676 17.1503 35.7137 17.1483 35.9626C17.1462 36.2116 17.1938 36.4585 17.2882 36.6888C17.3826 36.9192 17.5219 37.1285 17.698 37.3045C17.8742 37.4804 18.0836 37.6196 18.314 37.7137C18.5445 37.8079 18.7914 37.8552 19.0404 37.8529C19.2894 37.8507 19.5354 37.7988 19.7641 37.7005C19.9928 37.6021 20.1996 37.4591 20.3725 37.28L27 30.6525Z" fill="#DBD3C5"/>
</g>
<defs>
<clipPath id="clip0_2931_2441">
<rect width="30" height="30" fill="white" transform="translate(12 13)"/>
</clipPath>
</defs>
</svg>
