<svg width="70" height="70" viewBox="0 0 70 70" fill="none" xmlns="http://www.w3.org/2000/svg">
<path d="M60.0943 64.3868V14.8585C60.0943 12.1229 57.8771 9.90564 55.1415 9.90564H5.6132C2.87759 9.90564 0.66037 12.1229 0.66037 14.8585V64.3868C0.66037 67.1224 2.87759 69.3396 5.6132 69.3396H55.1415C57.8771 69.3396 60.0943 67.1224 60.0943 64.3868Z" fill="#1C9957"/>
<path d="M5.61319 69.3397H55.1415C57.8771 69.3397 30.3773 42.9246 30.3773 42.9246C30.3773 42.9246 2.87757 69.3397 5.61319 69.3397Z" fill="#3E7BF1"/>
<path d="M60.0943 64.3868V14.8585C60.0943 12.1229 33.6792 39.6226 33.6792 39.6226C33.6792 39.6226 60.0943 67.1224 60.0943 64.3868Z" fill="#CBCCC9"/>
<path d="M55.1415 69.3396C57.8771 69.3396 60.0943 67.1224 60.0943 64.3868V63.9823L34.0837 37.9717L28.7264 43.329L54.737 69.3396H55.1415Z" fill="#EFEFEF"/>
<path d="M60.0943 14.8585C60.0943 12.1229 57.8771 9.90564 55.1415 9.90564H54.737L0.66037 63.9823V64.3868C0.66037 67.1224 2.87759 69.3396 5.6132 69.3396H6.01768L60.0943 15.263V14.8585Z" fill="#FFD73D"/>
<path d="M50.1887 3.30188C41.0705 3.30188 33.6792 10.6932 33.6792 19.8113C33.6792 31.0592 46.3354 35.1568 49.0875 52.5842C49.2641 53.7068 49.2774 54.4811 50.1887 54.4811C51.1 54.4811 51.1132 53.7068 51.2899 52.5842C54.042 35.1568 66.6981 31.0592 66.6981 19.8113C66.6981 10.6932 59.3068 3.30188 50.1887 3.30188Z" fill="#D73F35"/>
<path d="M50.1887 14.033C49.4299 14.033 48.6785 14.1824 47.9774 14.4728C47.2764 14.7632 46.6394 15.1888 46.1028 15.7254C45.5662 16.2619 45.1406 16.8989 44.8502 17.6C44.5598 18.3011 44.4104 19.0524 44.4104 19.8113C44.4104 20.5701 44.5598 21.3215 44.8502 22.0225C45.1406 22.7236 45.5662 23.3606 46.1028 23.8971C46.6394 24.4337 47.2764 24.8593 47.9774 25.1497C48.6785 25.4401 49.4299 25.5896 50.1887 25.5896C50.9475 25.5896 51.6989 25.4401 52.3999 25.1497C53.101 24.8593 53.738 24.4337 54.2745 23.8971C54.8111 23.3606 55.2367 22.7236 55.5271 22.0225C55.8175 21.3215 55.967 20.5701 55.967 19.8113C55.967 19.0524 55.8175 18.3011 55.5271 17.6C55.2367 16.8989 54.8111 16.2619 54.2745 15.7254C53.738 15.1888 53.101 14.7632 52.3999 14.4728C51.6989 14.1824 50.9475 14.033 50.1887 14.033Z" fill="#752622"/>
<path d="M14.6818 20.6879V24.1566H19.6248C18.9776 26.2599 17.2226 27.7639 14.6818 27.7639C11.6557 27.7639 9.204 25.3122 9.204 22.2861C9.204 19.2599 11.6573 16.8082 14.6818 16.8082C16.0422 16.8082 17.2837 17.3068 18.2413 18.1273L20.7969 15.5733C19.184 14.104 17.0377 13.2075 14.6818 13.2075C9.66627 13.2075 5.59999 17.2738 5.59999 22.2877C5.59999 27.3016 9.66627 31.3679 14.6818 31.3679C22.6229 31.3679 23.9882 24.2408 23.2403 20.7012L14.6818 20.6879Z" fill="white"/>
</svg>
