<svg width="60" height="60" viewBox="0 0 60 60" fill="none" xmlns="http://www.w3.org/2000/svg">
<path opacity="0.5" d="M5 30C5 34.9445 6.46622 39.778 9.21326 43.8892C11.9603 48.0005 15.8648 51.2048 20.4329 53.097C25.0011 54.9892 30.0277 55.4843 34.8773 54.5196C39.7268 53.555 44.1814 51.174 47.6777 47.6777C51.174 44.1813 53.555 39.7268 54.5196 34.8772C55.4843 30.0277 54.9892 25.0011 53.097 20.4329C51.2048 15.8647 48.0005 11.9603 43.8893 9.21325C39.778 6.46622 34.9445 4.99999 30 4.99999C26.717 4.99999 23.4661 5.64663 20.4329 6.903C17.3998 8.15937 14.6438 10.0009 12.3223 12.3223C10.0009 14.6438 8.15938 17.3998 6.90301 20.4329C5.64664 23.466 5 26.7169 5 30ZM50 30C50 33.9556 48.827 37.8224 46.6294 41.1114C44.4318 44.4004 41.3082 46.9638 37.6537 48.4776C33.9991 49.9913 29.9778 50.3874 26.0982 49.6157C22.2186 48.844 18.6549 46.9392 15.8579 44.1421C13.0608 41.3451 11.156 37.7814 10.3843 33.9018C9.61259 30.0222 10.0087 26.0008 11.5224 22.3463C13.0362 18.6918 15.5996 15.5682 18.8886 13.3706C22.1776 11.173 26.0444 9.99999 30 9.99999C35.3043 9.99999 40.3914 12.1071 44.1421 15.8579C47.8929 19.6086 50 24.6957 50 30Z" fill="#FF5E00"/>
<path d="M30 10V5C26.717 5 23.4661 5.64664 20.4329 6.90301C17.3998 8.15938 14.6438 10.0009 12.3223 12.3223C10.0009 14.6438 8.15938 17.3998 6.90301 20.4329C5.64664 23.4661 5 26.717 5 30H10C10 24.6957 12.1071 19.6086 15.8579 15.8579C19.6086 12.1071 24.6957 10 30 10Z" fill="#FF5E00"/>
</svg>
