<svg width="50" height="50" viewBox="0 0 50 50" fill="none" xmlns="http://www.w3.org/2000/svg">
<g clip-path="url(#clip0_2939_1528)">
<path d="M41.2695 17.4111C41.2689 17.1614 41.2632 16.9119 41.2525 16.6625V2.51045L37.5236 6.42295C34.4715 2.50348 29.8287 0 24.6281 0C19.2162 0 14.4082 2.71025 11.3691 6.90779L17.4814 13.3881C18.0799 12.2281 18.9276 11.2301 19.9574 10.4734C21.0246 9.5998 22.5365 8.88525 24.6281 8.88525C24.8809 8.88525 25.076 8.91639 25.2191 8.97459C27.8107 9.18934 30.057 10.6898 31.3795 12.8676L27.0527 17.407C32.533 17.3844 38.7238 17.3713 41.2691 17.41" fill="#1C3AA9"/>
<path d="M24.531 0.000732422C24.293 0.00144066 24.0552 0.00738459 23.8175 0.0185603H10.3288L14.0579 3.93106C10.3222 7.13311 7.93604 12.0044 7.93604 17.4606C7.93604 23.1388 10.5192 28.1833 14.52 31.372L20.6966 24.9591C19.5909 24.3312 18.6397 23.4417 17.9185 22.3612C17.0858 21.2417 16.4048 19.6552 16.4048 17.4608C16.4048 17.1958 16.4345 16.9911 16.4899 16.8407C16.6946 14.1218 18.1247 11.7651 20.2005 10.3776L24.5271 14.9169C24.5056 9.16692 24.4929 2.67163 24.53 0.00114226" fill="#4285F4"/>
<path d="M7.93652 17.46C7.9373 17.7108 7.94277 17.9602 7.95352 18.2085V32.3606L11.6826 28.4481C14.7346 32.3675 19.3775 34.871 24.5779 34.871C29.99 34.871 34.798 32.1608 37.8373 27.9632L31.725 21.4829C31.1265 22.643 30.2787 23.6409 29.2488 24.3977C28.1818 25.2712 26.6697 25.9858 24.5781 25.9858C24.3256 25.9858 24.1305 25.9546 23.9871 25.8962C21.3957 25.6817 19.1494 24.1811 17.827 22.0034L22.1535 17.4639C16.673 17.4864 10.4822 17.4997 7.93691 17.461" fill="#ABABAB"/>
<path d="M10.7447 41.6328C10.3395 41.6328 9.97598 41.7133 9.65449 41.8746C9.33541 42.0303 9.05539 42.2619 8.83672 42.5512C8.6166 42.8445 8.44707 43.2002 8.32832 43.618C8.21309 44.0324 8.15527 44.4961 8.15527 45.0094V46.4889C8.15527 47.0057 8.21309 47.4713 8.32832 47.8856C8.44707 48.3 8.61484 48.6537 8.83164 48.9471C9.04824 49.2401 9.31016 49.4658 9.61777 49.6233C9.9252 49.7811 10.2713 49.86 10.6557 49.86C11.0506 49.86 11.3965 49.7994 11.6936 49.6785C11.9941 49.5576 12.2457 49.3834 12.4482 49.1559C12.651 48.925 12.8064 48.6465 12.9148 48.3201C13.0268 47.9938 13.093 47.6233 13.1141 47.2092H12.1443C12.1199 47.5281 12.0779 47.8014 12.0186 48.0287C11.9592 48.2522 11.8717 48.4375 11.7564 48.584C11.6445 48.727 11.4979 48.8334 11.316 48.9031C11.1379 48.969 10.9176 49.002 10.6557 49.002C10.3762 49.002 10.1385 48.9379 9.94277 48.8094C9.74707 48.6774 9.58809 48.4979 9.46582 48.2705C9.34707 48.0432 9.25957 47.7774 9.20371 47.4731C9.15137 47.1688 9.125 46.8408 9.125 46.4887V44.9983C9.125 44.6207 9.15645 44.2779 9.21934 43.9699C9.28574 43.6621 9.38535 43.3998 9.51816 43.1836C9.65098 42.9672 9.81875 42.8004 10.0215 42.683C10.224 42.5621 10.4652 42.5016 10.7447 42.5016C10.9789 42.5016 11.1799 42.5383 11.3475 42.6117C11.5132 42.6796 11.6582 42.7936 11.7668 42.9416C11.8787 43.0881 11.9643 43.2752 12.0236 43.5024C12.0832 43.7299 12.1232 44.001 12.1443 44.3164H13.1141C13.0965 43.8838 13.032 43.5008 12.9201 43.167C12.8082 42.8334 12.6527 42.5529 12.4535 42.3256C12.2543 42.0981 12.0115 41.926 11.725 41.8086C11.4418 41.6914 11.1152 41.6328 10.7447 41.6328ZM34.4166 41.6328C34.0111 41.6328 33.6477 41.7133 33.3262 41.8746C33.0071 42.0303 32.7271 42.2619 32.5084 42.5512C32.2883 42.8445 32.1189 43.2002 32 43.618C31.8848 44.0324 31.8271 44.4961 31.8271 45.0094V46.4889C31.8271 47.0057 31.8848 47.4713 32 47.8856C32.1187 48.3 32.2865 48.6537 32.5033 48.9471C32.7199 49.2401 32.9818 49.4658 33.2895 49.6233C33.5971 49.7811 33.943 49.86 34.3273 49.86C34.7223 49.86 35.0682 49.7994 35.3652 49.6785C35.6658 49.5576 35.9174 49.3834 36.1201 49.1559C36.3227 48.925 36.4781 48.6465 36.5865 48.3201C36.6984 47.9938 36.7648 47.6233 36.7857 47.2092H35.816C35.7916 47.5281 35.7496 47.8014 35.6902 48.0287C35.6309 48.2522 35.5436 48.4375 35.4281 48.584C35.3164 48.727 35.1695 48.8334 34.9879 48.9031C34.8096 48.969 34.5895 49.002 34.3273 49.002C34.0479 49.002 33.8102 48.9379 33.6145 48.8094C33.4188 48.6774 33.2598 48.4979 33.1375 48.2705C33.0187 48.0432 32.9314 47.7774 32.8754 47.4731C32.823 47.1688 32.7969 46.8408 32.7969 46.4887V44.9983C32.7969 44.6207 32.8281 44.2779 32.8912 43.9699C32.9576 43.6621 33.0572 43.3998 33.19 43.1836C33.3229 42.9672 33.4904 42.8004 33.6932 42.683C33.8959 42.5621 34.1369 42.5016 34.4164 42.5016C34.6508 42.5016 34.8516 42.5383 35.0193 42.6117C35.1869 42.6813 35.3268 42.7912 35.4387 42.9416C35.5504 43.0881 35.6359 43.2752 35.6955 43.5024C35.7549 43.7299 35.7951 44.001 35.816 44.3164H36.7857C36.7682 43.8838 36.7037 43.5008 36.5918 43.167C36.4799 42.8334 36.3244 42.5529 36.1252 42.3256C35.926 42.0981 35.6832 41.926 35.3967 41.8086C35.1135 41.6914 34.7869 41.6326 34.4164 41.6326L34.4166 41.6328ZM16.2699 41.7428L13.8115 49.75H14.7969L15.3893 47.66H17.9682L18.5709 49.75H19.5564L17.0928 41.7428H16.2699ZM20.5941 41.7428V49.75H21.5533V46.6151H23.0262C23.3932 46.6151 23.7182 46.5619 24.0012 46.4557C24.2844 46.3457 24.5219 46.1881 24.7141 45.9828C24.9098 45.7774 25.0564 45.5244 25.1543 45.2238C25.2559 44.9195 25.3064 44.575 25.3064 44.1899C25.3064 43.8342 25.2557 43.508 25.1543 43.211C25.0566 42.9104 24.9115 42.6518 24.7193 42.4356C24.5271 42.2156 24.2877 42.0451 24.0012 41.9242C23.718 41.8033 23.3932 41.7426 23.0262 41.7426L20.5941 41.7428ZM26.0402 41.7428V42.6117H28.0426V49.75H29.0016V42.6117H31.0094V41.7428H26.0402ZM38.0805 41.7428V49.75H39.0395V46.0488H42.1113V49.75H43.0758V41.7428H42.1113V45.1854H39.0396V41.7428H38.0805ZM46.7133 41.7428L44.2551 49.75H45.2406L45.8328 47.66H48.4117L49.0146 49.75H50L47.5363 41.7428H46.7133ZM21.5531 42.6117H23.0262C23.2604 42.6117 23.4594 42.6555 23.6238 42.7436C23.7914 42.8317 23.9277 42.949 24.0326 43.0957C24.1433 43.2476 24.2235 43.4216 24.2684 43.607C24.3209 43.7975 24.3471 43.9957 24.3471 44.201C24.3471 44.4285 24.3209 44.6373 24.2684 44.8281C24.2235 45.0068 24.1431 45.1735 24.0326 45.3174C23.9277 45.4531 23.7914 45.5592 23.6236 45.6363C23.4596 45.7133 23.2604 45.7518 23.026 45.7518H21.5533L21.5531 42.6117ZM16.6785 43.1506L17.7217 46.7912H15.6408L16.6785 43.1506ZM47.1223 43.1506L48.1652 46.7912H46.0844L47.1223 43.1506ZM1.9709 43.6895C1.72969 43.6895 1.52168 43.7537 1.34707 43.8822C1.17578 44.0104 1.03262 44.1846 0.917383 44.4045L0.901563 43.7996H0V49.75H0.927734V45.4932C1.01523 45.2401 1.13926 45.0404 1.3 44.8938C1.46406 44.7471 1.67207 44.6738 1.92363 44.6738C2.0041 44.6738 2.07578 44.6774 2.13848 44.6848C2.20156 44.6885 2.26973 44.6975 2.34297 44.7123L2.33789 43.7664C2.31597 43.7563 2.29304 43.7489 2.26953 43.7442C2.23891 43.7324 2.20743 43.7232 2.17539 43.7168C2.13898 43.7093 2.10221 43.7038 2.06523 43.7004C2.03421 43.6935 2.00261 43.6898 1.9709 43.6893V43.6895ZM5.08965 43.6895C4.82051 43.6895 4.56035 43.7391 4.30859 43.8381C4.05703 43.9371 3.8334 44.1002 3.6377 44.3274C3.44551 44.5512 3.29004 44.8445 3.17129 45.2074C3.05234 45.5668 2.99297 46.0086 2.99297 46.5328V47.2037C2.99297 47.6584 3.04375 48.0524 3.14512 48.386C3.24629 48.7197 3.39121 48.9967 3.58008 49.2166C3.77288 49.4333 4.0118 49.5992 4.27734 49.7006C4.5498 49.807 4.85547 49.86 5.19453 49.86C5.43906 49.86 5.65742 49.8344 5.8498 49.783C6.04551 49.7317 6.21836 49.6658 6.36875 49.585C6.50937 49.5079 6.63977 49.4118 6.75664 49.2992C6.85956 49.1993 6.9526 49.0887 7.03437 48.9692L6.55215 48.3533C6.4752 48.4522 6.39316 48.5438 6.30586 48.6281C6.21836 48.7088 6.12227 48.7803 6.01758 48.8426C5.90802 48.9032 5.79179 48.9493 5.67148 48.9801C5.53246 49.0147 5.38994 49.0314 5.24707 49.0297C4.81719 49.0297 4.48691 48.8848 4.25625 48.5953C4.0291 48.3055 3.91563 47.8418 3.91563 47.2039V47.0662H7.08164V46.4998C7.08164 46.0453 7.04492 45.6436 6.97148 45.2955C6.89805 44.9471 6.78105 44.6539 6.62031 44.4156C6.46388 44.181 6.25024 43.9949 6.00176 43.8766C5.7502 43.7518 5.44609 43.6895 5.08965 43.6895ZM5.08965 44.5256C5.29238 44.5256 5.46016 44.5639 5.59297 44.641C5.72435 44.7165 5.83319 44.8288 5.90742 44.9654C5.9877 45.1047 6.04551 45.2715 6.08047 45.466C6.11875 45.6565 6.14336 45.8674 6.15371 46.0983V46.2303H3.9207C3.93477 45.8967 3.97324 45.6199 4.03594 45.3998C4.09902 45.1799 4.18105 45.0057 4.28242 44.8774C4.3873 44.7455 4.50781 44.6539 4.64414 44.6024C4.78727 44.5499 4.93801 44.5238 5.08965 44.5254V44.5256Z" fill="#A6A6A6"/>
</g>
<defs>
<clipPath id="clip0_2939_1528">
<rect width="50" height="50" fill="white"/>
</clipPath>
</defs>
</svg>
