<svg width="50" height="34" viewBox="0 0 50 34" fill="none" xmlns="http://www.w3.org/2000/svg">
<g clip-path="url(#clip0_2939_780)">
<path d="M46.6667 33.3332H3.33333C2.44928 33.3332 1.60143 32.9821 0.976311 32.3569C0.351189 31.7318 0 30.884 0 29.9999L0 15.9777H2.40139L2.94306 14.6666H4.15556L4.69583 15.9721H9.42083V14.9791L9.84306 15.9791H12.2958L12.7181 14.9624V15.9763H24.4583V13.8319H24.6806C24.8389 13.8374 24.8847 13.8513 24.8847 14.1152V15.9791H30.9583V15.4805C31.5792 15.7957 32.3111 15.9805 33.0875 15.9805L33.2194 15.9791H33.2125H35.7681L36.3153 14.6735H37.5278L38.0625 15.9791H42.9875V14.7374L43.7319 15.9791H47.6708V7.77907H43.7722V8.74713L43.2264 7.77907H39.2181V8.74713L38.7167 7.77907H33.3042C32.4841 7.73763 31.6671 7.9064 30.9306 8.26935L30.9597 8.25685V7.77907H27.2264V8.25685C26.7745 7.90068 26.2038 7.7303 25.6306 7.78046H25.6389H11.9958L11.0806 9.89852L10.1403 7.78046H5.84306V8.74852L5.36944 7.78046H1.70278L0.00416667 11.6694V3.33602C0.00416667 2.45196 0.355356 1.60412 0.980477 0.978996C1.6056 0.353875 2.45345 0.00268555 3.3375 0.00268555H46.6708C47.5549 0.00268555 48.4027 0.353875 49.0279 0.978996C49.653 1.60412 50.0042 2.45196 50.0042 3.33602V17.8916H47.4028C47.3611 17.8888 47.3111 17.8888 47.2625 17.8888C46.6597 17.8888 46.1 18.0694 45.6333 18.3791L45.6444 18.3721V17.8916H41.7972C41.1962 17.8584 40.6015 18.0292 40.1097 18.3763L40.1181 18.3707V17.8902H33.2486V18.3707C32.6863 18.0536 32.0512 17.888 31.4056 17.8902H31.3514H31.3542H26.8222V18.3707C26.2301 17.9915 25.5275 17.8227 24.8278 17.8916L24.8403 17.8902H19.7694L18.6083 19.1457L17.5222 17.8902H9.94722V26.0957H17.3806L18.5764 24.8207L19.7028 26.0957H24.2847V24.1749H24.9236C25.5379 24.1989 26.1506 24.0963 26.7236 23.8735L26.6931 23.8846V26.0985H30.4708V23.961H30.6528C30.8833 23.961 30.9069 23.9694 30.9069 24.2027V26.0999H42.3875L42.5278 26.1027C43.1861 26.1027 43.8 25.9055 44.3111 25.568L44.2986 25.5749V26.0999H47.9403L48.1139 26.1027C48.7958 26.1027 49.4444 25.9624 50.0333 25.7082L50.0014 25.7207V30.0013C50.0014 30.8854 49.6502 31.7332 49.0251 32.3583C48.4 32.9834 47.5521 33.3346 46.6681 33.3346L46.6667 33.3332ZM29.3125 24.9457H27.8986V19.0638H31.1431C31.729 19.0095 32.3191 19.1081 32.8556 19.3499L32.8333 19.3416C33.2681 19.5805 33.5583 20.036 33.5583 20.5582L33.5556 20.6513V20.6471L33.5569 20.6999C33.5569 21.3749 33.15 21.9555 32.5667 22.2082L32.5556 22.2124C32.8347 22.3124 33.0681 22.4832 33.2417 22.7041L33.2444 22.7069C33.4405 23.0315 33.5227 23.4122 33.4778 23.7888L33.4792 23.7805V24.9444H32.0681V24.2082C32.1349 23.8075 32.0545 23.396 31.8417 23.0499L31.8458 23.0569C31.6992 22.9456 31.5316 22.8652 31.353 22.8205C31.1744 22.7759 30.9887 22.7679 30.8069 22.7971L30.8153 22.7957H29.3125V24.9444V24.9457ZM29.3125 20.2791V21.5999H31.0208C31.2621 21.6222 31.5049 21.579 31.7236 21.4749L31.7153 21.4791C31.8047 21.4214 31.8782 21.3422 31.9291 21.2488C31.98 21.1554 32.0068 21.0507 32.0069 20.9444L32.0056 20.9124C32.0124 20.8063 31.9891 20.7017 31.9382 20.6083C31.8873 20.5149 31.811 20.4378 31.7181 20.386L31.7153 20.3846C31.5045 20.2904 31.273 20.2521 31.0431 20.2735H31.0486L29.3125 20.2791ZM16.7778 24.9444H11.2125V19.0638H16.8653L18.5944 20.9916L20.3819 19.0638H24.8722C26.4667 19.0638 27.2417 19.6985 27.2417 21.0013C27.2417 22.3277 26.4403 22.9721 24.7972 22.9721H23.0403V24.943H20.3083L18.5778 22.9999L16.7778 24.9444ZM21.6403 19.6944L19.4819 22.0138L21.6403 24.4082V19.6944ZM12.6139 22.5485V23.718H16.0694L17.6667 21.993L16.1306 20.2791H12.6125V21.3485H15.6986V22.5471L12.6139 22.5485ZM23.0403 20.2805V21.7777H24.8556C25.4111 21.7777 25.7306 21.4944 25.7306 20.9999C25.7306 20.5277 25.4333 20.2791 24.8708 20.2791L23.0403 20.2805ZM48.0931 24.9471H45.3792V23.6832H48.0819C48.2842 23.7111 48.4893 23.6582 48.6528 23.536L48.6514 23.5374C48.7036 23.489 48.7452 23.4303 48.7736 23.3651C48.8021 23.2998 48.8167 23.2294 48.8167 23.1582V23.136C48.8168 23.0657 48.8015 22.9962 48.772 22.9324C48.7425 22.8686 48.6995 22.812 48.6458 22.7666C48.5021 22.6627 48.3248 22.6161 48.1486 22.636H48.1514L47.8917 22.6277C46.6222 22.5944 45.1847 22.5555 45.1847 20.8152C45.1847 19.968 45.7153 19.0638 47.2 19.0638H50.0014V20.3166H47.4389C47.241 20.2944 47.041 20.3342 46.8667 20.4305L46.8722 20.4277C46.8037 20.4728 46.7485 20.5356 46.7126 20.6094C46.6767 20.6832 46.6613 20.7653 46.6681 20.8471V20.8457V20.861C46.6681 20.9546 46.6976 21.0458 46.7524 21.1216C46.8073 21.1974 46.8847 21.254 46.9736 21.2832L46.9764 21.2846C47.1525 21.3389 47.3368 21.3615 47.5208 21.3513H47.5167L48.2792 21.3707C48.8539 21.3134 49.4282 21.4845 49.8778 21.8471L49.8736 21.8444C49.9153 21.8777 49.9514 21.9138 49.9833 21.9541L49.9847 21.9555L50.0014 24.1944C49.7678 24.4673 49.4707 24.6786 49.1362 24.8096C48.8017 24.9406 48.4401 24.9874 48.0833 24.9457L48.0931 24.9471ZM42.6083 24.9471H39.8694V23.6832H42.5944C42.7983 23.7099 43.0047 23.6572 43.1708 23.536L43.1681 23.5374C43.2199 23.4888 43.2612 23.4301 43.2894 23.3649C43.3176 23.2996 43.3321 23.2293 43.3319 23.1582V23.1444C43.3319 23.0729 43.3166 23.0022 43.2872 22.9371C43.2577 22.872 43.2147 22.8138 43.1611 22.7666C43.0148 22.6626 42.8353 22.6161 42.6569 22.636H42.6597L42.4014 22.6277C41.1361 22.5944 39.7 22.5555 39.7 20.8152C39.7 19.968 40.2278 19.0638 41.7097 19.0638H44.5264V20.3166H41.9486C41.752 20.2947 41.5535 20.3345 41.3806 20.4305L41.3861 20.4277C41.3132 20.4779 41.2551 20.5469 41.2181 20.6273C41.1811 20.7078 41.1666 20.7968 41.1759 20.8848C41.1853 20.9729 41.2183 21.0568 41.2715 21.1277C41.3246 21.1985 41.3959 21.2537 41.4778 21.2874L41.4806 21.2888C41.659 21.3435 41.8457 21.3661 42.0319 21.3555H42.0278L42.7847 21.3749C43.3625 21.3192 43.9393 21.4906 44.3931 21.8527L44.3889 21.8485C44.5415 22.0168 44.6576 22.2149 44.7298 22.4302C44.802 22.6456 44.8287 22.8737 44.8083 23.0999V23.093C44.8125 24.3194 44.0694 24.9444 42.6042 24.9444L42.6083 24.9471ZM39.0278 24.9471H34.3333V19.0624H39.0236V20.2777H35.7361V21.3471H38.9472V22.5457H35.7361V23.7152L39.0278 23.7207V24.943V24.9471ZM41.7639 14.8277H38.9014L38.3542 13.5166H35.4347L34.9042 14.8277H33.2597C32.5212 14.8666 31.794 14.6339 31.2153 14.1735L31.2222 14.1777C30.9473 13.8742 30.7386 13.5168 30.6095 13.1282C30.4803 12.7396 30.4336 12.3284 30.4722 11.9207L30.4708 11.9319C30.4351 11.5167 30.4841 11.0986 30.6149 10.703C30.7458 10.3073 30.9557 9.94244 31.2319 9.63046L31.2292 9.63324C31.5208 9.37822 31.8618 9.18595 32.231 9.06839C32.6002 8.95083 32.9896 8.9105 33.375 8.94991L33.3639 8.94852H34.725V10.2027H33.3917C33.1966 10.1776 32.9983 10.1958 32.8111 10.256C32.6238 10.3163 32.4522 10.4171 32.3083 10.5513L32.3097 10.5499C32.0128 10.9302 31.8686 11.4077 31.9056 11.8888V11.8819C31.8613 12.3761 32.0002 12.8694 32.2958 13.268L32.2917 13.2624C32.5678 13.4881 32.9212 13.5967 33.2764 13.5652H33.2708H33.9014L35.8889 8.94019H38L40.3792 14.4957V8.94019H42.5194L44.9889 13.0346V8.94019H46.4333V14.818H44.4278L41.7611 10.4041V14.818L41.7639 14.8277ZM36.9042 9.94158L35.9361 12.286H37.8764L36.9042 9.94158ZM23.2944 14.8249H21.8889V8.94435H25.1222C25.7125 8.88311 26.3082 8.98344 26.8458 9.23463L26.825 9.2263C27.0412 9.34584 27.2214 9.52107 27.3469 9.73381C27.4725 9.94654 27.5387 10.189 27.5389 10.436L27.5361 10.5332V10.5291V10.5721C27.5362 10.8929 27.4438 11.2069 27.2698 11.4764C27.0959 11.7459 26.8479 11.9595 26.5556 12.0916L26.5444 12.0957C26.8236 12.2013 27.0583 12.3707 27.2375 12.5874L27.2403 12.5902C27.4384 12.916 27.5202 13.2994 27.4722 13.6777L27.4736 13.6694V14.8235H26.0556L26.05 14.0819V13.9707C26.1005 13.6081 26.0202 13.2393 25.8236 12.9305L25.8278 12.9374C25.6807 12.8293 25.5136 12.7515 25.3363 12.7083C25.1589 12.6652 24.9748 12.6576 24.7944 12.686L24.8028 12.6846H23.2958V14.8235L23.2944 14.8249ZM23.2944 10.168V11.4735H25C25.2409 11.4997 25.4843 11.4563 25.7014 11.3485L25.6944 11.3513C25.7834 11.2972 25.857 11.2212 25.9081 11.1304C25.9591 11.0397 25.986 10.9374 25.9861 10.8332L25.9847 10.7944C25.9918 10.6888 25.9678 10.5849 25.9157 10.4929C25.8636 10.4008 25.7858 10.326 25.6917 10.2777L25.6889 10.2763C25.4775 10.1856 25.2474 10.1475 25.0181 10.1652H25.0222L23.2944 10.168ZM8.41111 14.8249H5.55556L5.01528 13.5138H2.0875L1.54306 14.8249H0.0152778L2.53333 8.94435H4.62083L7.01111 14.5096V8.94435H9.30417L11.1431 12.9319L12.8333 8.94435H15.1736V14.8221H13.7292L13.7264 10.2221L11.6889 14.8235H10.4556L8.4125 10.2152V14.8235L8.41111 14.8249ZM3.54444 9.94158L2.5875 12.286H4.50694L3.54444 9.94158ZM29.7778 14.8235H28.3444V8.94435H29.7792V14.8221L29.7778 14.8235ZM20.9083 14.8235H16.2222V8.94435H20.9167V10.1666H17.6278V11.2263H20.8375V12.4332H17.625V13.6082H20.9139V14.8221L20.9083 14.8235Z" fill="#254AA5"/>
</g>
<defs>
<clipPath id="clip0_2939_780">
<rect width="50" height="33.3333" fill="white"/>
</clipPath>
</defs>
</svg>
