<svg width="51" height="50" viewBox="0 0 51 50" fill="none" xmlns="http://www.w3.org/2000/svg">
<g clip-path="url(#clip0_2939_793)">
<path d="M4.86344 8.99588C4.54816 8.99626 4.23287 8.99835 3.91761 9.00213C3.60511 9.01254 3.28636 9.02921 2.97594 9.08546C2.50682 9.1596 2.062 9.34406 1.67808 9.62367C1.29416 9.90328 0.982112 10.27 0.767611 10.6938C0.621777 10.9813 0.530111 11.273 0.475944 11.5896C0.417611 11.898 0.398861 12.2146 0.392611 12.5271C0.388346 12.6722 0.385568 12.8174 0.384277 12.9625L0.384277 37.0396C0.384277 37.1855 0.388444 37.3271 0.390527 37.4709C0.398861 37.7834 0.417611 38.1021 0.473861 38.4125C0.530111 38.725 0.623861 39.0188 0.769694 39.3063C1.05697 39.8719 1.5166 40.3315 2.08219 40.6188C2.36969 40.7646 2.66136 40.8584 2.97803 40.9146C3.28636 40.9709 3.60303 40.9896 3.91553 40.998L4.34886 41.0042H46.4197L46.8509 40.998C47.1634 40.9896 47.4822 40.9709 47.7926 40.9146C48.1051 40.8584 48.3989 40.7667 48.6843 40.6209C49.2513 40.3339 49.7119 39.8733 49.9989 39.3063C50.1447 39.0188 50.2384 38.7271 50.2926 38.4105C50.3489 38.1021 50.3676 37.7855 50.3759 37.473C50.3801 37.3271 50.3822 37.1855 50.3822 37.0396L50.3843 36.5271V12.9605C50.3843 12.8146 50.3801 12.673 50.3759 12.5292C50.372 12.2137 50.3442 11.8989 50.2926 11.5875C50.1929 10.9602 49.8975 10.3804 49.4485 9.93097C48.9995 9.4816 48.4199 9.18566 47.7926 9.08546C47.4813 9.03412 47.1665 9.00627 46.8509 9.00213C46.5364 8.99322 46.2218 8.99114 45.9072 8.99588H4.86344ZM4.86344 10.0625H46.4093C46.5468 10.0625 46.6822 10.0667 46.8197 10.0688C47.0593 10.0771 47.3405 10.0896 47.6009 10.1355C47.828 10.1771 48.0176 10.2396 48.1989 10.3313C48.5643 10.5168 48.8613 10.8138 49.0468 11.1792C49.1422 11.3681 49.2083 11.5704 49.2426 11.7792C49.2884 12.0355 49.3009 12.3167 49.3072 12.5584C49.3114 12.6938 49.3134 12.8292 49.3134 12.9688V37.0355C49.3134 37.1709 49.3134 37.3063 49.3072 37.4438C49.3009 37.6834 49.2884 37.9646 49.2405 38.225C49.1955 38.5316 49.0773 38.8228 48.896 39.0741C48.7147 39.3254 48.4756 39.5294 48.1989 39.6688C48.0112 39.7637 47.8104 39.8297 47.603 39.8646C47.3459 39.9055 47.0862 39.9278 46.8259 39.9313L46.4093 39.9375H4.35511C4.21761 39.9375 4.07803 39.9334 3.94678 39.9313C3.6851 39.9279 3.424 39.9056 3.16553 39.8646C2.93844 39.823 2.74886 39.7605 2.56553 39.6688C2.20007 39.484 1.90359 39.1868 1.71969 38.8209C1.6245 38.6319 1.55848 38.4296 1.52386 38.2209C1.48249 37.9639 1.4602 37.7041 1.45719 37.4438C1.4544 37.307 1.45301 37.1702 1.45303 37.0334V12.9667C1.45303 12.8313 1.45303 12.6938 1.45719 12.5563C1.46553 12.3188 1.47803 12.0396 1.52386 11.775C1.56553 11.55 1.62803 11.3605 1.71969 11.1771C1.90532 10.8123 2.20231 10.516 2.56761 10.3313C2.75621 10.237 2.95768 10.171 3.16553 10.1355C3.42594 10.0896 3.70719 10.075 3.94678 10.0688C4.08219 10.0646 4.21969 10.0646 4.35511 10.0625H4.86344ZM14.6759 17.7709C14.0509 17.8042 13.2843 18.1855 12.8426 18.7209C12.4447 19.1792 12.0926 19.9292 12.1843 20.6334C12.8884 20.6959 13.5905 20.2813 14.0343 19.7625C14.4614 19.225 14.753 18.5063 14.6759 17.773V17.7709ZM19.2739 18.6459V30.0896H21.0489V26.1792H23.5072C25.753 26.1792 27.3301 24.6396 27.3301 22.4042C27.3301 20.175 25.7843 18.6438 23.5634 18.6438L19.2739 18.6459ZM21.0489 20.1438H23.0947C24.6343 20.1438 25.5134 20.9688 25.5134 22.4125C25.5134 23.8542 24.6343 24.6875 23.0884 24.6875H21.0489V20.1438ZM14.478 20.7688C13.5405 20.7896 12.7489 21.3521 12.2905 21.3521C11.8009 21.3521 11.0551 20.8021 10.2468 20.8167C9.72096 20.8298 9.20775 20.9804 8.75818 21.2534C8.30862 21.5265 7.93837 21.9124 7.68428 22.373C6.58636 24.2646 7.39469 27.0709 8.46344 28.6125C8.98219 29.375 9.60719 30.2146 10.4301 30.1834C11.2072 30.1542 11.5134 29.6792 12.4572 29.6792C13.403 29.6792 13.678 30.1834 14.4989 30.1688C15.353 30.1542 15.8884 29.4063 16.4051 28.6417C17.0009 27.773 17.2447 26.9334 17.2593 26.8896C17.2447 26.873 15.6134 26.248 15.5989 24.3709C15.5822 22.8 16.8801 22.0521 16.9405 22.0063C16.2072 20.923 15.0655 20.8021 14.6697 20.7709C14.6059 20.7669 14.5419 20.7676 14.478 20.7688ZM31.5697 21.5959C29.5072 21.5959 28.2239 22.7063 28.128 24.2125H29.7468C29.8968 23.4667 30.5155 22.9917 31.5072 22.9917C32.553 22.9917 33.1801 23.5459 33.1801 24.473V25.1167L30.8947 25.25C28.9134 25.3625 27.7947 26.2584 27.7947 27.7167C27.7947 29.2167 28.9364 30.2313 30.5697 30.2313C31.6655 30.2313 32.7197 29.6459 33.203 28.7167H33.2426V30.0896H34.8843V24.3396C34.8843 22.6667 33.5926 21.5959 31.5697 21.5959ZM35.6114 21.7459L38.6239 30.098C38.6239 30.1042 38.4718 30.598 38.4718 30.6125C38.2114 31.4667 37.7843 31.8021 36.9905 31.8021C36.8468 31.8021 36.5614 31.8021 36.4343 31.7709V33.1584C36.5593 33.1813 36.9905 33.198 37.1322 33.198C38.8614 33.198 39.6864 32.548 40.3989 30.525L43.5239 21.7459H41.7155L39.6072 28.5355H39.5759L37.4655 21.7438L35.6114 21.7459ZM33.1801 26.3063V26.9646C33.1801 28.05 32.2426 28.875 31.0468 28.875C30.1259 28.875 29.5239 28.4 29.5239 27.6688C29.5239 26.9563 30.103 26.5021 31.1259 26.4334L33.1801 26.3063Z" fill="#211F23"/>
</g>
<defs>
<clipPath id="clip0_2939_793">
<rect width="50" height="50" fill="white" transform="translate(0.384277)"/>
</clipPath>
</defs>
</svg>
