<svg width="51" height="20" viewBox="0 0 51 20" fill="none" xmlns="http://www.w3.org/2000/svg">
<g clip-path="url(#clip0_2939_787)">
<path d="M35.8264 5.37666C37.2009 5.37666 38.2631 5.75156 39.0754 6.50137C39.8876 7.25107 40.2624 8.25078 40.2624 9.50039V15.4984H38.513V14.124H38.4505C37.7008 15.2487 36.6386 15.811 35.389 15.811C34.3268 15.811 33.3896 15.4985 32.6398 14.8738C31.9525 14.249 31.5151 13.3743 31.5151 12.4371C31.5151 11.4374 31.8901 10.6251 32.6398 10.0003C33.3896 9.37549 34.4518 9.12559 35.7014 9.12559C36.826 9.12559 37.7008 9.31309 38.388 9.75039V9.31309C38.388 8.72988 38.1703 8.14678 37.7349 7.7668L37.6382 7.68857C37.1384 7.25117 36.5136 7.00127 35.8264 7.00127C34.7642 7.00127 33.952 7.43867 33.3896 8.31338L31.7651 7.31348C32.7647 6.00137 34.0769 5.37666 35.8264 5.37666ZM27.0166 1.12793C28.1377 1.12793 29.2031 1.51807 30.055 2.24561L30.2031 2.37744C31.0778 3.12725 31.5151 4.25195 31.5151 5.43906C31.5151 6.62617 31.0778 7.68838 30.2031 8.50059C29.3283 9.31289 28.2662 9.7502 27.0166 9.7502L24.0176 9.6877V15.4984H22.1431V1.12793H27.0166ZM36.0762 10.625C35.3265 10.625 34.7017 10.8124 34.2019 11.1873C33.702 11.4997 33.4521 11.937 33.4521 12.4993C33.4521 12.9992 33.7021 13.4365 34.0769 13.6865C34.5143 13.9989 35.0141 14.1863 35.514 14.1863C36.2137 14.1863 36.9135 13.9142 37.4608 13.4207L37.5758 13.3116C38.2006 12.7493 38.513 12.062 38.513 11.3122C37.9507 10.8749 37.1384 10.6249 36.0763 10.6249M27.1417 2.87725H24.0177V7.87598H27.1417C27.8289 7.87598 28.5162 7.62607 28.9536 7.12627C29.9532 6.18906 29.9532 4.62705 29.0161 3.68975L28.9536 3.62725C28.4537 3.12744 27.8289 2.81504 27.1416 2.87754M50.3843 5.68906L44.1987 19.8722H42.3243L44.636 14.9362L40.5748 5.75156H42.5742L45.5107 12.8118H45.5732L48.4474 5.75156H50.3843V5.68906Z" fill="#5F6368"/>
<path d="M16.5823 8.43813C16.5823 7.87583 16.5198 7.31353 16.4573 6.75122H8.64746V9.93774H13.0835C12.8961 10.9374 12.3338 11.8746 11.4591 12.437V14.4988H14.1457C15.7077 13.0618 16.5824 10.9374 16.5824 8.43823" fill="#4285F4"/>
<path d="M8.64756 16.4982C10.8968 16.4982 12.7712 15.7484 14.1458 14.4988L11.4592 12.437C10.7094 12.9368 9.77217 13.2492 8.64756 13.2492C6.52314 13.2492 4.64873 11.8122 4.02393 9.81274H1.2749V11.9371C2.71191 14.7487 5.52354 16.4982 8.64756 16.4982Z" fill="#34A853"/>
<path d="M4.02371 9.81279C3.6489 8.81309 3.6489 7.68848 4.02371 6.62627V4.50195H1.27468C0.0874757 6.81377 0.0874757 9.56289 1.27468 11.9371L4.02371 9.81279Z" fill="#FBBC04"/>
<path d="M8.64717 3.25238C9.83428 3.25238 10.9589 3.68978 11.8337 4.50199L14.2079 2.12777C12.7083 0.753158 10.709 -0.0590488 8.70957 0.00335356C5.58555 0.00335356 2.71152 1.75287 1.33691 4.56449L4.08604 6.6888C4.64834 4.68939 6.52275 3.25238 8.64717 3.25238Z" fill="#EA4335"/>
</g>
<defs>
<clipPath id="clip0_2939_787">
<rect width="50" height="19.9219" fill="white" transform="translate(0.384277)"/>
</clipPath>
</defs>
</svg>
