<svg width="50" height="39" viewBox="0 0 50 39" fill="none" xmlns="http://www.w3.org/2000/svg">
<g clip-path="url(#clip0_2939_775)">
<path d="M31.7602 27.6005H18.2402V3.30322H31.7602V27.6005Z" fill="#6C6BBD"/>
<path d="M19.0982 15.4525C19.0982 10.5236 21.4059 6.1332 24.9996 3.30391C22.3717 1.23496 19.0547 0 15.4504 0C6.91719 0 0 6.91816 0 15.4525C0 23.9867 6.91719 30.9049 15.4504 30.9049C19.0549 30.9049 22.3717 29.6699 24.9996 27.601C21.4059 24.7717 19.0982 20.3813 19.0982 15.4525Z" fill="#D32011"/>
<path d="M50.0001 15.4525C50.0001 23.9867 43.0829 30.9049 34.5497 30.9049C30.9452 30.9049 27.6284 29.6699 24.9995 27.601C28.5942 24.7717 30.9019 20.3813 30.9019 15.4525C30.9019 10.5236 28.5942 6.1332 24.9995 3.30391C27.6284 1.23496 30.9454 0 34.5497 0C43.0829 0 50.0001 6.91816 50.0001 15.4525Z" fill="#0099DF"/>
<path d="M36.3348 34.4661C36.5145 34.4661 36.7729 34.5004 36.9703 34.578L36.6953 35.419C36.5066 35.3415 36.318 35.3159 36.1373 35.3159C35.5537 35.3159 35.2619 35.693 35.2619 36.3709V38.6717H34.3689V34.5692H35.2531V35.0672C35.485 34.7067 35.8199 34.4661 36.3348 34.4661ZM33.0357 35.3846H31.5768V37.2383C31.5768 37.65 31.7223 37.925 32.1693 37.925C32.4012 37.925 32.6928 37.8475 32.9582 37.6932L33.2154 38.4567C32.9326 38.654 32.4865 38.775 32.1004 38.775C31.0443 38.775 30.676 38.2081 30.676 37.2551V35.3846H29.843V34.5692H30.676V33.3245H31.5768V34.5692H33.0357V35.3846ZM21.6111 36.26C21.7064 35.6676 22.0662 35.2639 22.7018 35.2639C23.2764 35.2639 23.6457 35.6243 23.74 36.26H21.6111ZM24.6676 36.6206C24.6586 35.3413 23.8687 34.4661 22.7184 34.4661C21.517 34.4661 20.676 35.3415 20.676 36.6204C20.676 37.9241 21.5514 38.7739 22.7793 38.7739C23.3973 38.7739 23.9631 38.6196 24.4611 38.1993L24.023 37.5381C23.6803 37.8131 23.242 37.9674 22.8305 37.9674C22.2557 37.9674 21.732 37.7012 21.6033 36.9635H24.6498C24.6586 36.8514 24.6676 36.7403 24.6676 36.6206ZM28.5893 35.6165C28.3406 35.4612 27.8346 35.2637 27.3109 35.2637C26.8217 35.2637 26.5299 35.4446 26.5299 35.7452C26.5299 36.0192 26.8385 36.0967 27.2246 36.1479L27.6451 36.2079C28.5381 36.3375 29.0783 36.7149 29.0783 37.436C29.0783 38.2168 28.3916 38.7749 27.2078 38.7749C26.5379 38.7749 25.9199 38.603 25.4305 38.2424L25.8512 37.5469C26.1518 37.7788 26.5988 37.9762 27.2166 37.9762C27.8258 37.9762 28.152 37.7965 28.152 37.4782C28.152 37.2473 27.9201 37.1176 27.4309 37.0499L27.0104 36.9899C26.0918 36.8602 25.5938 36.4485 25.5938 35.7795C25.5938 34.9641 26.2637 34.4661 27.3021 34.4661C27.9545 34.4661 28.5469 34.6125 28.9752 34.8954L28.5893 35.6165ZM39.5971 35.3137C39.4135 35.3137 39.2436 35.3463 39.0854 35.4102C38.9322 35.4722 38.7932 35.5644 38.6766 35.6813C38.5593 35.801 38.4671 35.943 38.4055 36.0989C38.3396 36.261 38.3072 36.4397 38.3072 36.6342C38.3072 36.8297 38.3396 37.0075 38.4055 37.1696C38.4713 37.3317 38.5617 37.4713 38.6766 37.5872C38.7932 37.7041 38.9322 37.7963 39.0854 37.8583C39.2436 37.9231 39.4135 37.9545 39.5971 37.9545C39.7807 37.9545 39.9518 37.9233 40.1088 37.8583C40.2626 37.7966 40.4023 37.7043 40.5195 37.5872C40.6365 37.4713 40.727 37.3317 40.7938 37.1696C40.8596 37.0075 40.892 36.8297 40.892 36.6342C40.892 36.4397 40.8596 36.261 40.7938 36.0989C40.727 35.9368 40.6365 35.7973 40.5195 35.6813C40.4024 35.5641 40.2627 35.4719 40.109 35.4102C39.9463 35.3452 39.7725 35.3125 39.5973 35.3139M39.5973 34.4663C39.9156 34.4663 40.2104 34.5213 40.4814 34.6323C40.7436 34.7366 40.9827 34.8915 41.185 35.0881C41.3841 35.2833 41.5421 35.5164 41.6496 35.7737C41.7615 36.0381 41.8176 36.325 41.8176 36.6344C41.8176 36.9438 41.7615 37.2307 41.6496 37.495C41.5421 37.7526 41.384 37.9861 41.1848 38.1817C40.9875 38.3752 40.7525 38.5266 40.4816 38.6375C40.2102 38.7477 39.9156 38.8026 39.5973 38.8026C39.2789 38.8026 38.9842 38.7477 38.7131 38.6375C38.442 38.5266 38.2092 38.3752 38.0127 38.1817C37.8147 37.9855 37.6574 37.7521 37.5498 37.495C37.4379 37.2307 37.3818 36.9438 37.3818 36.6344C37.3818 36.325 37.4379 36.0381 37.5498 35.7739C37.6574 35.517 37.8147 35.284 38.0127 35.0881C38.2136 34.8913 38.4517 34.7363 38.7131 34.6323C38.9842 34.5213 39.2789 34.4663 39.5973 34.4663ZM16.3967 36.6204C16.3967 35.8995 16.8693 35.3071 17.6414 35.3071C18.3793 35.3071 18.8773 35.8739 18.8773 36.6206C18.8773 37.367 18.3793 37.9331 17.6414 37.9331C16.8693 37.9331 16.3967 37.3415 16.3967 36.6204ZM19.7184 36.6206V34.5694H18.8262V35.0674C18.5424 34.6981 18.1141 34.4663 17.5305 34.4663C16.3801 34.4663 15.4791 35.367 15.4791 36.6206C15.4791 37.8733 16.3801 38.775 17.5305 38.775C18.1141 38.775 18.5422 38.5432 18.8262 38.1739V38.6719H19.7184V36.6206ZM14.6891 38.6719V36.0971C14.6891 35.1274 14.0711 34.475 13.076 34.4663C12.5523 34.4575 12.0109 34.6206 11.6338 35.1961C11.3508 34.7413 10.9039 34.4663 10.2771 34.4663C9.83984 34.4663 9.41055 34.595 9.07559 35.0752V34.5694H8.18359V38.6719H9.08438V36.3977C9.08438 35.6854 9.4793 35.3073 10.0883 35.3073C10.6809 35.3073 10.9814 35.6932 10.9814 36.3889V38.6719H11.8824V36.3975C11.8824 35.6852 12.2949 35.3071 12.8863 35.3071C13.4965 35.3071 13.7883 35.693 13.7883 36.3887V38.6719H14.6891Z" fill="#211F23"/>
</g>
<defs>
<clipPath id="clip0_2939_775">
<rect width="50" height="38.8672" fill="white"/>
</clipPath>
</defs>
</svg>
