<svg width="50" height="39" viewBox="0 0 50 39" fill="none" xmlns="http://www.w3.org/2000/svg">
<g clip-path="url(#clip0_2939_770)">
<path d="M9.08994 38.6741V36.1016C9.08994 35.1153 8.48955 34.4723 7.46045 34.4723C6.946 34.4723 6.38857 34.6438 6.00264 35.2012C5.70264 34.7295 5.27393 34.4723 4.63076 34.4723C4.20186 34.4723 3.77334 34.6008 3.43018 35.0725V34.5581H2.52979V38.6741H3.43018V36.4016C3.43018 35.6729 3.81611 35.3297 4.4165 35.3297C5.0165 35.3297 5.31689 35.7157 5.31689 36.4016V38.6741H6.21729V36.4016C6.21729 35.6729 6.6458 35.3297 7.20322 35.3297C7.80361 35.3297 8.10361 35.7157 8.10361 36.4016V38.6741H9.08994ZM22.4241 34.5581H20.9665V33.3147H20.0661V34.5581H19.2515V35.3725H20.0659V37.2592C20.0659 38.2026 20.4519 38.7598 21.481 38.7598C21.8669 38.7598 22.2954 38.6313 22.5958 38.4598L22.3384 37.6879C22.0812 37.8594 21.7812 37.9024 21.5667 37.9024C21.138 37.9024 20.9665 37.6452 20.9665 37.2163V35.3725H22.4241V34.5581ZM30.0562 34.4721C29.5417 34.4721 29.1987 34.7295 28.9843 35.0725V34.5581H28.0839V38.6741H28.9843V36.3588C28.9843 35.6729 29.2843 35.287 29.8417 35.287C30.0132 35.287 30.2276 35.3299 30.3991 35.3727L30.6563 34.5153C30.4849 34.4723 30.2276 34.4723 30.0562 34.4723M18.5226 34.9012C18.0937 34.601 17.4935 34.4725 16.8503 34.4725C15.8214 34.4725 15.1354 34.987 15.1354 35.8016C15.1354 36.4877 15.6499 36.8735 16.5503 37.0022L16.979 37.0452C17.4507 37.1307 17.7079 37.2594 17.7079 37.4739C17.7079 37.7739 17.3649 37.9883 16.7646 37.9883C16.1644 37.9883 15.6927 37.7739 15.3925 37.5596L14.9638 38.2456C15.4354 38.5885 16.0786 38.76 16.7216 38.76C17.9222 38.76 18.6083 38.2028 18.6083 37.4309C18.6083 36.702 18.0509 36.3161 17.1933 36.1875L16.7646 36.1446C16.3786 36.1016 16.0786 36.0161 16.0786 35.7588C16.0786 35.4586 16.3786 35.2872 16.8503 35.2872C17.3649 35.2872 17.8794 35.5014 18.1366 35.6301L18.5226 34.9012ZM42.4474 34.4725C41.9327 34.4725 41.5897 34.7297 41.3753 35.0727V34.5583H40.4749V38.6743H41.3753V36.359C41.3753 35.6731 41.6755 35.2872 42.2327 35.2872C42.4044 35.2872 42.6188 35.3301 42.7903 35.3729L43.0476 34.5155C42.8761 34.4725 42.6189 34.4725 42.4474 34.4725ZM30.9565 36.6163C30.9565 37.8596 31.814 38.76 33.1433 38.76C33.7435 38.76 34.1722 38.6315 34.6009 38.2885L34.1722 37.5596C33.8292 37.8168 33.4862 37.9454 33.1003 37.9454C32.3714 37.9454 31.8569 37.4309 31.8569 36.6163C31.8569 35.8446 32.3714 35.3299 33.1003 35.2872C33.4862 35.2872 33.8292 35.4157 34.1722 35.6731L34.6009 34.9442C34.1722 34.601 33.7435 34.4725 33.1433 34.4725C31.814 34.4725 30.9565 35.3729 30.9565 36.6163ZM39.2745 36.6163V34.5583H38.3741V35.0727C38.0739 34.687 37.6452 34.4725 37.0878 34.4725C35.9302 34.4725 35.0298 35.3729 35.0298 36.6163C35.0298 37.8596 35.9302 38.76 37.0878 38.76C37.688 38.76 38.1169 38.5458 38.3741 38.1598V38.6743H39.2745V36.6163ZM35.9729 36.6163C35.9729 35.8874 36.4446 35.2872 37.2163 35.2872C37.9452 35.2872 38.4599 35.8446 38.4599 36.6163C38.4599 37.3452 37.9452 37.9454 37.2163 37.9454C36.4446 37.9024 35.9729 37.3452 35.9729 36.6163ZM25.2112 34.4725C24.0106 34.4725 23.153 35.3299 23.153 36.6163C23.153 37.9026 24.0105 38.76 25.254 38.76C25.8542 38.76 26.4546 38.5885 26.9263 38.2028L26.4974 37.5596C26.1544 37.8168 25.7257 37.9883 25.297 37.9883C24.7396 37.9883 24.1821 37.7311 24.0534 37.002H27.0978V36.6592C27.1407 35.3299 26.369 34.4725 25.2112 34.4725ZM25.211 35.2442C25.7683 35.2442 26.1544 35.5874 26.2399 36.2305H24.0962C24.1819 35.6731 24.5679 35.2442 25.211 35.2442ZM47.5493 36.6163V32.929H46.6489V35.0727C46.3487 34.687 45.92 34.4725 45.3626 34.4725C44.205 34.4725 43.3046 35.3729 43.3046 36.6163C43.3046 37.8596 44.205 38.76 45.3626 38.76C45.963 38.76 46.3917 38.5458 46.6489 38.1598V38.6743H47.5493V36.6163ZM44.2479 36.6163C44.2479 35.8874 44.7194 35.2872 45.4913 35.2872C46.2202 35.2872 46.7347 35.8446 46.7347 36.6163C46.7347 37.3452 46.2202 37.9454 45.4913 37.9454C44.7194 37.9024 44.2479 37.3452 44.2479 36.6163ZM14.1489 36.6163V34.5583H13.2485V35.0727C12.9483 34.687 12.5196 34.4725 11.9622 34.4725C10.8046 34.4725 9.9042 35.3729 9.9042 36.6163C9.9042 37.8596 10.8046 38.76 11.9622 38.76C12.5626 38.76 12.9913 38.5458 13.2485 38.1598V38.6743H14.1489V36.6163ZM10.8046 36.6163C10.8046 35.8874 11.2763 35.2872 12.0479 35.2872C12.7769 35.2872 13.2915 35.8446 13.2915 36.6163C13.2915 37.3452 12.7769 37.9454 12.0479 37.9454C11.2763 37.9024 10.8046 37.3452 10.8046 36.6163Z" fill="#211F23"/>
<path d="M18.2222 3.30127H31.728V27.569H18.2222V3.30127Z" fill="#FF5F00"/>
<path d="M19.0799 15.4354C19.0799 10.5047 21.3951 6.13125 24.9537 3.30137C22.3385 1.24336 19.0371 0 15.4355 0C6.90293 0 0 6.90293 0 15.4354C0 23.9676 6.90293 30.8707 15.4354 30.8707C19.0369 30.8707 22.3383 29.6273 24.9537 27.5691C21.3951 24.7822 19.0799 20.366 19.0799 15.4354Z" fill="#EB001B"/>
<path d="M49.9503 15.4354C49.9503 23.9676 43.0474 30.8707 34.5149 30.8707C30.9134 30.8707 27.612 29.6273 24.9966 27.5691C28.5981 24.7395 30.8706 20.366 30.8706 15.4354C30.8706 10.5047 28.5552 6.13125 24.9966 3.30137C27.6118 1.24336 30.9134 0 34.5149 0C43.0474 0 49.9503 6.9459 49.9503 15.4354Z" fill="#F79E1B"/>
</g>
<defs>
<clipPath id="clip0_2939_770">
<rect width="50" height="38.8672" fill="white"/>
</clipPath>
</defs>
</svg>
