<svg width="43" height="50" viewBox="0 0 43 50" fill="none" xmlns="http://www.w3.org/2000/svg">
<g clip-path="url(#clip0_2939_782)">
<path d="M35.955 3.8918C33.6481 1.26233 29.4779 0.13501 24.143 0.13501H8.65951C8.13167 0.135029 7.62115 0.323344 7.21973 0.666098C6.81832 1.00885 6.55233 1.48356 6.46961 2.00488L0.0225895 42.8935C-0.105556 43.6997 0.518782 44.4299 1.336 44.4299H10.8949L13.2956 29.2029L13.2211 29.6797C13.3921 28.6034 14.3127 27.8095 15.4027 27.8095H19.9451C28.8686 27.8095 35.8559 24.185 37.8969 13.7001C37.9575 13.39 38.01 13.0882 38.0554 12.7933C37.7978 12.6569 37.7978 12.6569 38.0554 12.7933C38.6632 8.91796 38.0512 6.28004 35.955 3.8918Z" fill="#27346A"/>
<path d="M18.7737 12.6071C19.0631 12.4693 19.3797 12.3979 19.7002 12.398H33.1429C34.7347 12.398 36.2195 12.5016 37.5762 12.72C37.9559 12.7805 38.3336 12.8528 38.7088 12.9367C39.2405 13.0541 39.7662 13.1977 40.2837 13.367C40.9508 13.5898 41.5719 13.8492 42.1429 14.1531C42.8158 9.85978 42.1381 6.94015 39.8167 4.29536C37.2605 1.38343 32.6438 0.13501 26.7358 0.13501H9.58763C8.38028 0.13501 7.35317 1.01398 7.16395 2.20574L0.0243877 47.485C-0.117524 48.3793 0.573881 49.1868 1.47742 49.1868H12.0647L17.5803 14.2095C17.6345 13.8657 17.7715 13.5403 17.9794 13.2611C18.1873 12.982 18.4599 12.7575 18.7737 12.6071Z" fill="#27346A"/>
<path d="M37.897 13.7002C35.8559 24.1837 28.8688 27.8097 19.9452 27.8097H15.4015C14.3114 27.8097 13.3907 28.6036 13.2213 29.6799L10.2347 48.6128C10.1231 49.3185 10.6688 49.9579 11.3828 49.9579H19.4407C19.9023 49.9577 20.3487 49.7929 20.6996 49.4931C21.0505 49.1932 21.283 48.778 21.3551 48.3221L21.4336 47.9115L22.9523 38.2863L23.0501 37.7544C23.1223 37.2985 23.3547 36.8833 23.7056 36.5835C24.0565 36.2836 24.5028 36.1188 24.9644 36.1186H26.1703C33.9761 36.1186 40.0882 32.9474 41.8743 23.7759C42.6198 19.9431 42.2341 16.7431 40.2619 14.4954C39.6637 13.8146 38.9208 13.2524 38.0554 12.7935C38.0086 13.0898 37.9578 13.3901 37.897 13.7002Z" fill="#2790C3"/>
<path d="M35.919 11.9418C35.6008 11.8488 35.2795 11.7666 34.9558 11.6951C34.6168 11.6206 34.2758 11.5557 33.9331 11.5007C32.7066 11.3022 31.3669 11.2085 29.9281 11.2085H17.7909C17.5012 11.2078 17.2152 11.2729 16.9543 11.3987C16.6706 11.5342 16.4241 11.7367 16.2363 11.9889C16.0485 12.241 15.925 12.5351 15.8765 12.8458L13.2967 29.203L13.2222 29.6799C13.3919 28.6035 14.3124 27.8097 15.4026 27.8097H19.9463C28.8698 27.8097 35.8569 24.1852 37.898 13.7002C37.9588 13.3901 38.0098 13.0896 38.0566 12.7934C37.5397 12.5206 36.9803 12.2848 36.3778 12.085C36.2258 12.0346 36.0729 11.9868 35.9192 11.9418" fill="#1F264F"/>
</g>
<defs>
<clipPath id="clip0_2939_782">
<rect width="42.3841" height="50" fill="white"/>
</clipPath>
</defs>
</svg>
