<svg width="24" height="24" viewBox="0 0 24 24" fill="none" xmlns="http://www.w3.org/2000/svg">
<path d="M21.3036 18.5497V5.41692L21.3038 5.41572L21.3036 5.41452V5.35812H21.2978C21.2839 5.20768 21.2144 5.06785 21.1029 4.96594C20.9913 4.86404 20.8458 4.80739 20.6947 4.80708C20.6875 4.80708 20.6808 4.809 20.6738 4.80924H19.5773C19.5602 4.8078 19.5437 4.8042 19.5262 4.8042C19.3647 4.80426 19.2099 4.86843 19.0957 4.98261C18.9815 5.09678 18.9173 5.25161 18.9173 5.41308C18.9173 5.44116 18.9218 5.46828 18.9257 5.4954V11.0492L10.9238 6.42924C10.8668 6.37284 10.7945 6.33434 10.7158 6.31848C10.6372 6.30262 10.5556 6.3101 10.4812 6.33998C10.4067 6.36986 10.3426 6.42086 10.2967 6.48669C10.2509 6.55252 10.2253 6.63032 10.223 6.71052H10.2216V10.3703L3.39551 6.429C3.33845 6.3726 3.26616 6.3341 3.18751 6.31824C3.10886 6.30238 3.02729 6.30986 2.95284 6.33974C2.87838 6.36963 2.81428 6.42062 2.76842 6.48645C2.72256 6.55228 2.69694 6.63008 2.69471 6.71028H2.69351V17.2777C2.69363 17.3597 2.71816 17.4397 2.76397 17.5076C2.80978 17.5756 2.87479 17.6283 2.95071 17.6592C3.02664 17.69 3.11002 17.6975 3.19023 17.6807C3.27043 17.664 3.34382 17.6237 3.40103 17.565L10.2216 13.6271V17.278C10.2217 17.3599 10.2462 17.4399 10.292 17.5079C10.3379 17.5758 10.4029 17.6286 10.4788 17.6594C10.5547 17.6902 10.6381 17.6977 10.7183 17.681C10.7985 17.6642 10.8719 17.6239 10.9291 17.5652L18.9257 12.9484V18.56H18.9288C18.9283 18.5694 18.9259 18.578 18.9259 18.5874C18.926 18.7486 18.99 18.9033 19.1039 19.0174C19.2178 19.1315 19.3724 19.1957 19.5336 19.196H20.6981V19.1903C20.778 19.1903 20.8572 19.1745 20.9311 19.1439C21.005 19.1133 21.0721 19.0685 21.1286 19.0119C21.1852 18.9554 21.23 18.8883 21.2606 18.8144C21.2912 18.7405 21.307 18.6614 21.307 18.5814C21.3067 18.5704 21.3041 18.5603 21.3036 18.5497Z" fill="black"/>
</svg>
