<svg width="40" height="39" viewBox="0 0 40 39" fill="none" xmlns="http://www.w3.org/2000/svg">
<g clip-path="url(#clip0_2939_1077)">
<path d="M40.0001 19.4958C40.0001 8.72697 31.0451 -0.00244141 20.0001 -0.00244141C8.95012 -1.92607e-05 -0.00488281 8.72697 -0.00488281 19.4983C-0.00488281 29.228 7.31012 37.2938 16.8701 38.7567V25.1322H11.7951V19.4983H16.8751V15.1989C16.8751 10.3135 19.8626 7.61521 24.4301 7.61521C26.6201 7.61521 28.9076 7.99548 28.9076 7.99548V12.7913H26.3851C23.9026 12.7913 23.1276 14.2955 23.1276 15.8384V19.4958H28.6726L27.7876 25.1297H23.1251V38.7543C32.6851 37.2913 40.0001 29.2256 40.0001 19.4958Z" fill="#FF5E00"/>
</g>
<defs>
<clipPath id="clip0_2939_1077">
<rect width="40" height="38.7543" fill="white"/>
</clipPath>
</defs>
</svg>
