<svg width="40" height="39" viewBox="0 0 40 39" fill="none" xmlns="http://www.w3.org/2000/svg">
<path d="M21.7135 3.22949C23.5885 3.23434 24.5401 3.24403 25.3618 3.26663L25.6852 3.27794C26.0585 3.29085 26.4268 3.307 26.8718 3.32638C28.6451 3.40712 29.8552 3.6784 30.9168 4.07724C32.0168 4.48739 32.9435 5.04287 33.8702 5.93907C34.7176 6.74628 35.3734 7.72272 35.7918 8.80043C36.2035 9.82903 36.4835 11.0013 36.5668 12.7211C36.5868 13.1506 36.6035 13.5075 36.6168 13.8708L36.6268 14.184C36.6518 14.9785 36.6618 15.9005 36.6652 17.7172L36.6668 18.9218V21.0371C36.6709 22.2149 36.6581 23.3927 36.6285 24.5702L36.6185 24.8835C36.6052 25.2468 36.5885 25.6037 36.5685 26.0332C36.4851 27.7529 36.2018 28.9236 35.7918 29.9538C35.3746 31.0321 34.7187 32.0088 33.8702 32.8152C33.0368 33.636 32.029 34.2713 30.9168 34.677C29.8552 35.0759 28.6451 35.3471 26.8718 35.4279C26.4763 35.4459 26.0808 35.4621 25.6852 35.4763L25.3618 35.486C24.5401 35.5086 23.5885 35.5199 21.7135 35.5232L20.4701 35.5248H18.2885C17.0723 35.5288 15.856 35.5164 14.6401 35.4876L14.3168 35.4779C13.9212 35.4634 13.5256 35.4467 13.1301 35.4279C11.3568 35.3471 10.1468 35.0759 9.08348 34.677C7.97126 34.2723 6.96384 33.6369 6.13181 32.8152C5.28356 32.0083 4.62719 31.0318 4.20848 29.9538C3.79681 28.9252 3.51681 27.7529 3.43348 26.0332C3.41491 25.65 3.39825 25.2668 3.38348 24.8835L3.37515 24.5702C3.34443 23.3927 3.33054 22.2149 3.33348 21.0371V17.7172C3.32883 16.5393 3.34105 15.3615 3.37015 14.184L3.38181 13.8708C3.39515 13.5075 3.41181 13.1506 3.43181 12.7211C3.51515 11.0013 3.79515 9.83065 4.20681 8.80043C4.62534 7.72161 5.28302 6.74487 6.13348 5.93907C6.9653 5.11792 7.97205 4.48253 9.08348 4.07724C10.1468 3.6784 11.3551 3.40712 13.1301 3.32638C13.5735 3.307 13.9435 3.29085 14.3168 3.27794L14.6401 3.26825C15.8555 3.23956 17.0711 3.22718 18.2868 3.23111L21.7135 3.22949ZM20.0001 11.3033C17.79 11.3033 15.6704 12.1539 14.1076 13.6681C12.5448 15.1822 11.6668 17.2358 11.6668 19.3771C11.6668 21.5184 12.5448 23.572 14.1076 25.0862C15.6704 26.6003 17.79 27.4509 20.0001 27.4509C22.2103 27.4509 24.3299 26.6003 25.8927 25.0862C27.4555 23.572 28.3335 21.5184 28.3335 19.3771C28.3335 17.2358 27.4555 15.1822 25.8927 13.6681C24.3299 12.1539 22.2103 11.3033 20.0001 11.3033ZM20.0001 14.5328C20.6568 14.5327 21.307 14.6579 21.9136 14.9013C22.5203 15.1446 23.0716 15.5014 23.5359 15.9511C24.0003 16.4009 24.3687 16.9349 24.6201 17.5226C24.8714 18.1103 25.0009 18.7402 25.001 19.3763C25.0011 20.0125 24.8719 20.6424 24.6207 21.2302C24.3695 21.818 24.0013 22.3521 23.5371 22.802C23.0729 23.2519 22.5218 23.6088 21.9152 23.8524C21.3086 24.0959 20.6584 24.2213 20.0018 24.2214C18.6757 24.2214 17.404 23.711 16.4663 22.8026C15.5286 21.8941 15.0018 20.6619 15.0018 19.3771C15.0018 18.0923 15.5286 16.8602 16.4663 15.9517C17.404 15.0432 18.6757 14.5328 20.0018 14.5328M28.7518 8.88117C28.1993 8.88117 27.6694 9.09382 27.2787 9.47236C26.888 9.85089 26.6685 10.3643 26.6685 10.8996C26.6685 11.4349 26.888 11.9483 27.2787 12.3269C27.6694 12.7054 28.1993 12.9181 28.7518 12.9181C29.3043 12.9181 29.8343 12.7054 30.225 12.3269C30.6157 11.9483 30.8351 11.4349 30.8351 10.8996C30.8351 10.3643 30.6157 9.85089 30.225 9.47236C29.8343 9.09382 29.3043 8.88117 28.7518 8.88117Z" fill="#C24700"/>
</svg>
