<svg width="40" height="39" viewBox="0 0 40 39" fill="none" xmlns="http://www.w3.org/2000/svg">
<g clip-path="url(#clip0_2939_1079)">
<path d="M19.9067 0.968801C14.6185 0.992113 9.55539 2.99288 5.82483 6.53342C2.09426 10.074 -5.75817e-05 14.8661 1.18739e-09 19.8615C1.1874e-09 24.8722 2.10714 29.6776 5.85786 33.2207C9.60859 36.7637 14.6957 38.7542 20 38.7542C25.3043 38.7542 30.3914 36.7637 34.1421 33.2207C37.8929 29.6776 40 24.8722 40 19.8615C40 14.8509 37.8929 10.0454 34.1421 6.50235C30.3914 2.95928 25.3043 0.968801 20 0.968801C19.9689 0.968733 19.9378 0.968733 19.9067 0.968801ZM28.1767 12.3422C28.3433 12.3391 28.7117 12.3784 28.9517 12.5626C29.1111 12.6935 29.2129 12.876 29.2367 13.0743C29.2633 13.2207 29.2967 13.5561 29.27 13.8174C28.97 16.8056 27.6667 24.0541 27.0033 27.3997C26.7233 28.8167 26.1717 29.2905 25.6367 29.3362C24.4767 29.4385 23.595 28.612 22.47 27.9161C20.71 26.825 19.715 26.1465 18.0067 25.0822C16.0317 23.8542 17.3117 23.1772 18.4367 22.0751C18.7317 21.7854 23.8483 17.3881 23.9483 16.9898C23.96 16.9394 23.9717 16.7537 23.855 16.656C23.7383 16.5584 23.565 16.5915 23.44 16.6183C23.2633 16.656 20.4517 18.4131 15.005 21.8846C14.205 22.4042 13.4833 22.6561 12.835 22.6403C12.1217 22.6277 10.7483 22.2609 9.72667 21.9476C8.47333 21.5619 7.47833 21.3588 7.565 20.7054C7.61 20.3653 8.10667 20.0174 9.05333 19.6616C14.8833 17.2622 18.77 15.6799 20.7167 14.9163C26.27 12.7342 27.425 12.3548 28.1767 12.3422Z" fill="#FF5E00"/>
</g>
<defs>
<clipPath id="clip0_2939_1079">
<rect width="40" height="38.7543" fill="white"/>
</clipPath>
</defs>
</svg>
